<svg id="Capa_1" enable-background="new 0 0 512.2 512.2" height="512" viewBox="0 0 512.2 512.2" width="512" xmlns="http://www.w3.org/2000/svg"><path d="m80.362 328.788c43.568 103.716 191.005 103.859 234.633 0 5.067-12.063-3.882-25.388-16.938-25.388h-200.757c-13.085-.001-21.995 13.348-16.938 25.388zm16.938-10.389h200.758c2.336 0 4.031 2.38 3.107 4.579-38.432 91.493-168.487 91.62-206.973 0-.925-2.203.776-4.579 3.108-4.579z"/><path d="m105.017 236.49c0-14.869 12.098-26.966 26.967-26.966s26.966 12.097 26.966 26.966c0 4.142 3.357 7.5 7.5 7.5s7.5-3.358 7.5-7.5c0-23.14-18.826-41.966-41.966-41.966-23.141 0-41.967 18.826-41.967 41.966 0 4.142 3.357 7.5 7.5 7.5s7.5-3.357 7.5-7.5z"/><path d="m236.408 236.49c0-14.869 12.098-26.966 26.967-26.966s26.966 12.097 26.966 26.966c0 4.142 3.357 7.5 7.5 7.5s7.5-3.358 7.5-7.5c0-23.14-18.826-41.966-41.966-41.966-23.141 0-41.967 18.826-41.967 41.966 0 4.142 3.357 7.5 7.5 7.5s7.5-3.357 7.5-7.5z"/><path d="m222.524 41.317c3.521-2.181 4.608-6.803 2.427-10.325-2.18-3.521-6.801-4.607-10.325-2.427-26.82 16.611-49.178 39.732-64.874 66.986-80.261 20.645-141.955 93.531-142.109 183.668-.106 61.174 29.098 118.18 78.171 153.97 2.201 1.605 2.874 4.515 1.563 6.769-9.979 17.17-22.604 32.761-37.521 46.339-11.007 10.019-2.003 28.283 12.666 25.646 27.806-4.996 68.543-16.339 104.71-42.005 2.051-1.455 4.667-2.074 7.372-1.746 34.415 4.186 69.52-.922 101.796-15.63 3.769-1.718 5.432-6.166 3.715-9.935-1.718-3.769-6.164-5.432-9.936-3.715-29.926 13.637-62.292 18.217-93.765 14.389-6.419-.778-12.762.784-17.863 4.404-33.705 23.919-71.915 34.619-98.282 39.397 15.915-14.544 29.396-31.231 40.077-49.606 5.184-8.917 2.736-20.278-5.693-26.426-45.187-32.955-72.105-85.974-72.01-141.825.165-96.347 78.687-174.73 175.038-174.729 96.515 0 175.035 78.521 175.035 175.036 0 56.437-27.465 109.733-73.47 142.569-3.371 2.406-4.153 7.09-1.747 10.461 2.406 3.372 7.089 4.154 10.462 1.748 18.366-13.109 33.998-29.231 46.438-47.414 33.779 21.329 70.102 31.177 95.278 35.7 14.657 2.633 23.684-15.617 12.666-25.646-14.919-13.58-27.543-29.171-37.521-46.34-1.311-2.253-.638-5.163 1.563-6.768 48.951-35.7 78.278-92.618 78.172-153.97-.229-133.605-133.595-224.12-257.112-177.496-3.875 1.462-5.831 5.79-4.368 9.665 1.464 3.875 5.793 5.831 9.665 4.368 114.498-43.217 236.606 41.973 236.814 163.488.096 55.851-26.823 108.87-72.01 141.825-8.43 6.147-10.877 17.508-5.693 26.425 10.667 18.353 24.13 35.023 40.076 49.612-23.829-4.317-57.984-13.621-89.558-33.57 16.351-28.458 25.344-61.04 25.344-94.658 0-114.742-101.8-204.773-217.733-188.053 13.779-20.114 31.704-37.276 52.542-50.181z"/></svg>